# xmcd
#
# Track frame offsets:
#	150
#	13285
#	26925
#	40092
#	53675
#	68372
#	76952
#	91607
#	108970
#	124825
#	134800
#	151385
#	168132
#	176205
#
# Disc length: 2436 seconds
#
# Revision: 1
# Processed by: cddbd v1.5.1PL0 Copyright (c) Steve Scherf et al.
# Submitted via: audiograbber 1.83.01
#
DISCID=b009820e
DTITLE=The VooDoo Organist - Holy Ghost Town
DYEAR=2004
DGENRE=Avantgarde
TTITLE0=Devil Drums
TTITLE1=Testify
TTITLE2=Battery Acid
TTITLE3=Kill You First
TTITLE4=This Lonesome Road
TTITLE5=Twist
TTITLE6=Running
TTITLE7=Blue #3
TTITLE8=Drink with the Living Dead
TTITLE9=Na Zdrowie!
TTITLE10=No Rest for the Wicked
TTITLE11=Voodoo Man
TTITLE12=Organ-ized!
TTITLE13=Hidden (HGT 2004)
EXTD=
EXTT0=
EXTT1=
EXTT2=
EXTT3=
EXTT4=
EXTT5=
EXTT6=
EXTT7=
EXTT8=
EXTT9=
EXTT10=
EXTT11=
EXTT12=
EXTT13=
PLAYORDER=
